<svg id="visual" viewBox="0 0 900 600" width="1500" height="600" xmlns="http://www.w3.org/2000/svg" xmlns:xlink="http://www.w3.org/1999/xlink" version="1.1"><g fill="none" stroke="#e6b799" stroke-width="4"><path d="M0 -152.9L34.3 -47.2L145.4 -47.2L55.5 18L89.9 123.7L0 58.4L-89.9 123.7L-55.5 18L-145.4 -47.2L-34.3 -47.2Z" transform="translate(856 325)"></path><path d="M0 -48.1L10.8 -14.9L45.8 -14.9L17.5 5.7L28.3 38.9L0 18.4L-28.3 38.9L-17.5 5.7L-45.8 -14.9L-10.8 -14.9Z" transform="translate(642 80)"></path><path d="M0 -101L22.7 -31.2L96 -31.2L36.7 11.9L59.4 81.7L0 38.6L-59.4 81.7L-36.7 11.9L-96 -31.2L-22.7 -31.2Z" transform="translate(313 464)"></path></g></svg>