<svg id="visual" viewBox="0 0 800 675" width="400" height="750" xmlns="http://www.w3.org/2000/svg" xmlns:xlink="http://www.w3.org/1999/xlink" version="1.1"><g fill="none" stroke="#e6b799" stroke-width="4"><path d="M0 -141.6L31.8 -43.7L134.6 -43.7L51.4 16.7L83.2 114.5L0 54.1L-83.2 114.5L-51.4 16.7L-134.6 -43.7L-31.8 -43.7Z" transform="translate(27 494)"></path><path d="M0 -44.4L10 -13.7L42.2 -13.7L16.1 5.2L26.1 35.9L0 16.9L-26.1 35.9L-16.1 5.2L-42.2 -13.7L-10 -13.7Z" transform="translate(885 196)"></path><path d="M0 -103.8L23.3 -32.1L98.7 -32.1L37.7 12.3L61 84L0 39.7L-61 84L-37.7 12.3L-98.7 -32.1L-23.3 -32.1Z" transform="translate(319 127)"></path><path d="M0 -48.1L10.8 -14.9L45.8 -14.9L17.5 5.7L28.3 38.9L0 18.4L-28.3 38.9L-17.5 5.7L-45.8 -14.9L-10.8 -14.9Z" transform="translate(600 605)"></path></g></svg>